<?xml version="1.0" standalone="no"?>
<!DOCTYPE svg PUBLIC "-//W3C//DTD SVG 20010904//EN"
 "http://www.w3.org/TR/2001/REC-SVG-20010904/DTD/svg10.dtd">
<svg version="1.0" xmlns="http://www.w3.org/2000/svg"
 width="600.000000pt" height="600.000000pt" viewBox="0 0 600.000000 600.000000"
 preserveAspectRatio="xMidYMid meet">
<metadata>
Created by potrace 1.11, written by Peter Selinger 2001-2013
</metadata>
<g transform="translate(0.000000,600.000000) scale(0.100000,-0.100000)"
fill="#000000" stroke="none">
<path d="M2835 5465 c-122 -18 -142 -23 -203 -51 -29 -13 -59 -24 -67 -24 -8
0 -15 -4 -15 -10 0 -5 -6 -10 -14 -10 -8 0 -21 -6 -28 -12 -20 -19 -50 -38
-70 -44 -10 -4 -18 -10 -18 -15 0 -5 -5 -9 -11 -9 -15 0 -97 -76 -167 -155
-64 -72 -63 -71 -87 -115 -11 -19 -25 -42 -31 -50 -15 -21 -50 -88 -69 -135
-9 -22 -20 -47 -25 -56 -5 -9 -11 -37 -15 -63 -4 -25 -11 -49 -16 -52 -5 -3
-9 -18 -9 -33 0 -15 -5 -32 -11 -38 -13 -13 -6 -389 9 -453 6 -25 18 -74 26
-110 19 -83 26 -109 43 -140 7 -14 13 -30 13 -36 0 -14 52 -114 78 -152 12
-16 22 -34 22 -39 0 -5 16 -24 35 -43 19 -19 35 -39 35 -45 0 -6 18 -29 40
-50 22 -21 40 -43 40 -48 0 -6 10 -19 23 -31 12 -12 53 -57 91 -101 38 -44 73
-81 77 -83 5 -2 9 -8 9 -14 0 -10 44 -64 115 -140 19 -21 35 -42 35 -46 0 -5
14 -21 31 -38 25 -23 95 -106 164 -192 5 -7 27 -32 48 -54 21 -23 41 -47 45
-54 4 -7 31 -38 60 -68 28 -31 52 -59 52 -64 0 -4 18 -25 40 -47 21 -22 39
-43 40 -47 0 -4 11 -20 25 -35 79 -89 105 -121 105 -128 0 -4 26 -34 58 -66
31 -33 62 -71 67 -84 6 -13 18 -31 27 -42 9 -10 20 -30 23 -46 4 -15 11 -30
16 -33 5 -3 9 -14 9 -25 0 -10 5 -19 10 -19 6 0 10 -8 10 -17 0 -10 7 -31 15
-47 8 -15 15 -36 15 -45 0 -9 4 -21 10 -27 5 -5 13 -39 16 -74 3 -36 10 -74
16 -86 11 -24 5 -185 -11 -269 -6 -33 -20 -79 -31 -102 -11 -24 -20 -46 -20
-49 0 -8 -33 -78 -40 -84 -3 -3 -18 -25 -34 -49 -37 -58 -109 -149 -118 -150
-4 -1 -20 -13 -35 -27 -50 -46 -210 -144 -236 -144 -7 0 -23 -6 -37 -13 -41
-22 -178 -41 -290 -41 -121 1 -228 8 -237 18 -3 3 -19 6 -34 6 -15 0 -30 4
-33 9 -3 5 -18 12 -33 15 -41 10 -133 56 -133 67 0 5 -6 9 -14 9 -20 0 -110
101 -125 140 -7 19 -17 44 -23 54 -6 11 -15 71 -21 134 -13 145 1 266 40 344
28 55 138 178 160 178 7 0 13 3 13 8 0 7 73 42 88 42 5 0 31 11 58 25 27 14
63 25 81 25 17 0 35 4 38 10 3 5 35 10 71 10 35 0 64 1 65 3 2 6 20 179 25
242 7 79 8 78 -86 110 -80 26 -242 13 -312 -25 -10 -6 -23 -10 -28 -10 -23 0
-114 -49 -158 -85 -33 -27 -205 -198 -217 -216 -66 -98 -125 -236 -141 -334
-3 -16 -10 -39 -15 -50 -18 -37 0 -413 21 -440 4 -5 11 -30 15 -55 3 -25 13
-61 21 -80 9 -19 20 -46 26 -60 6 -14 14 -33 19 -42 5 -10 9 -24 9 -32 0 -26
133 -146 195 -176 17 -8 36 -21 43 -27 7 -7 20 -13 28 -13 8 0 14 -4 14 -10 0
-5 4 -10 10 -10 17 0 90 -34 90 -42 0 -5 8 -8 18 -8 18 0 105 -26 134 -41 9
-4 40 -11 70 -15 29 -4 58 -10 63 -14 26 -21 289 -29 380 -12 88 16 155 35
155 44 0 5 9 8 19 8 11 0 32 7 48 15 15 8 47 22 71 32 23 9 42 20 42 24 0 4 8
9 18 13 17 5 52 26 62 36 3 3 12 10 21 15 50 31 132 101 189 162 73 78 170
208 170 228 0 7 3 15 8 17 7 3 39 66 76 150 9 20 16 45 16 56 0 12 5 24 10 27
6 3 10 21 10 40 0 19 4 36 9 39 4 3 11 35 14 71 3 36 11 74 17 84 12 24 14
417 1 425 -4 3 -11 37 -15 76 -4 38 -11 72 -17 75 -5 4 -9 17 -9 30 0 13 -4
26 -9 30 -5 3 -13 19 -16 36 -8 34 -93 204 -125 249 -11 15 -20 32 -20 38 0 5
-7 15 -16 23 -8 7 -30 35 -49 63 -19 28 -52 69 -74 91 -23 21 -41 43 -41 49 0
5 -26 37 -57 71 -32 34 -85 93 -118 131 -72 82 -193 213 -217 235 -10 9 -18
20 -18 24 0 8 -57 73 -163 185 -34 35 -66 72 -72 81 -5 10 -56 65 -112 123
-57 59 -103 110 -103 113 0 4 -28 36 -61 72 -34 36 -78 84 -98 106 -41 46
-101 136 -101 153 0 7 -3 12 -8 12 -14 0 -46 94 -59 178 -3 18 -9 35 -14 38
-5 3 -9 44 -9 91 0 80 9 132 31 175 5 10 9 27 9 39 0 11 7 37 16 57 9 21 20
46 24 57 13 33 74 159 82 170 4 6 19 24 33 41 14 18 25 36 25 41 0 9 114 119
146 141 10 7 27 15 37 18 9 4 17 10 17 14 0 4 12 11 27 15 15 3 38 15 53 25
14 10 50 21 80 24 30 3 80 8 110 12 64 7 50 8 170 -7 52 -6 99 -15 105 -20 5
-5 19 -9 32 -9 13 0 23 -4 23 -10 0 -5 7 -10 15 -10 23 0 175 -81 210 -112 16
-15 47 -41 68 -58 20 -18 37 -36 37 -41 0 -5 15 -24 33 -42 40 -41 89 -123
102 -172 10 -37 18 -55 26 -55 4 0 11 -16 15 -35 3 -19 10 -38 15 -41 5 -3 9
-16 9 -30 0 -13 4 -24 10 -24 5 0 12 -17 16 -37 4 -21 13 -47 20 -57 13 -19
32 -20 831 -16 450 1 863 4 918 5 55 1 166 3 248 4 l147 1 0 141 0 140 -957
-3 c-614 -2 -963 1 -973 7 -14 9 -33 50 -47 100 -4 11 -9 22 -12 25 -3 3 -26
44 -51 93 -24 48 -47 87 -51 87 -4 0 -10 11 -13 25 -4 14 -11 25 -16 25 -6 0
-10 5 -10 11 0 30 -170 209 -265 279 -33 24 -61 47 -63 52 -2 4 -8 8 -14 8 -9
0 -108 44 -160 71 -10 5 -26 9 -36 9 -10 0 -22 4 -27 9 -32 28 -321 38 -470
16z"/>
</g>
</svg>
